<svg width="42" height="42" viewBox="0 0 42 42" fill="none" xmlns="http://www.w3.org/2000/svg">
<path d="M15.5837 16C15.4732 16 15.3672 15.9473 15.289 15.8536C15.2109 15.7598 15.167 15.6326 15.167 15.5C15.167 15.3674 15.2109 15.2402 15.289 15.1464C15.3672 15.0527 15.4732 15 15.5837 15C15.6942 15 15.8001 15.0527 15.8783 15.1464C15.9564 15.2402 16.0003 15.3674 16.0003 15.5C16.0003 15.6326 15.9564 15.7598 15.8783 15.8536C15.8001 15.9473 15.6942 16 15.5837 16ZM15.5837 21C15.4732 21 15.3672 20.9473 15.289 20.8536C15.2109 20.7598 15.167 20.6326 15.167 20.5C15.167 20.3674 15.2109 20.2402 15.289 20.1464C15.3672 20.0527 15.4732 20 15.5837 20C15.6942 20 15.8001 20.0527 15.8783 20.1464C15.9564 20.2402 16.0003 20.3674 16.0003 20.5C16.0003 20.6326 15.9564 20.7598 15.8783 20.8536C15.8001 20.9473 15.6942 21 15.5837 21ZM15.5837 26C15.4732 26 15.3672 25.9473 15.289 25.8536C15.2109 25.7598 15.167 25.6326 15.167 25.5C15.167 25.3674 15.2109 25.2402 15.289 25.1464C15.3672 25.0527 15.4732 25 15.5837 25C15.6942 25 15.8001 25.0527 15.8783 25.1464C15.9564 25.2402 16.0003 25.3674 16.0003 25.5C16.0003 25.6326 15.9564 25.7598 15.8783 25.8536C15.8001 25.9473 15.6942 26 15.5837 26ZM21.0003 16C20.8898 16 20.7838 15.9473 20.7057 15.8536C20.6276 15.7598 20.5837 15.6326 20.5837 15.5C20.5837 15.3674 20.6276 15.2402 20.7057 15.1464C20.7838 15.0527 20.8898 15 21.0003 15C21.1108 15 21.2168 15.0527 21.295 15.1464C21.3731 15.2402 21.417 15.3674 21.417 15.5C21.417 15.6326 21.3731 15.7598 21.295 15.8536C21.2168 15.9473 21.1108 16 21.0003 16ZM21.0003 21C20.8898 21 20.7838 20.9473 20.7057 20.8536C20.6276 20.7598 20.5837 20.6326 20.5837 20.5C20.5837 20.3674 20.6276 20.2402 20.7057 20.1464C20.7838 20.0527 20.8898 20 21.0003 20C21.1108 20 21.2168 20.0527 21.295 20.1464C21.3731 20.2402 21.417 20.3674 21.417 20.5C21.417 20.6326 21.3731 20.7598 21.295 20.8536C21.2168 20.9473 21.1108 21 21.0003 21ZM21.0003 26C20.8898 26 20.7838 25.9473 20.7057 25.8536C20.6276 25.7598 20.5837 25.6326 20.5837 25.5C20.5837 25.3674 20.6276 25.2402 20.7057 25.1464C20.7838 25.0527 20.8898 25 21.0003 25C21.1108 25 21.2168 25.0527 21.295 25.1464C21.3731 25.2402 21.417 25.3674 21.417 25.5C21.417 25.6326 21.3731 25.7598 21.295 25.8536C21.2168 25.9473 21.1108 26 21.0003 26ZM26.417 16C26.3065 16 26.2005 15.9473 26.1224 15.8536C26.0442 15.7598 26.0003 15.6326 26.0003 15.5C26.0003 15.3674 26.0442 15.2402 26.1224 15.1464C26.2005 15.0527 26.3065 15 26.417 15C26.5275 15 26.6335 15.0527 26.7116 15.1464C26.7898 15.2402 26.8337 15.3674 26.8337 15.5C26.8337 15.6326 26.7898 15.7598 26.7116 15.8536C26.6335 15.9473 26.5275 16 26.417 16ZM26.417 21C26.3065 21 26.2005 20.9473 26.1224 20.8536C26.0442 20.7598 26.0003 20.6326 26.0003 20.5C26.0003 20.3674 26.0442 20.2402 26.1224 20.1464C26.2005 20.0527 26.3065 20 26.417 20C26.5275 20 26.6335 20.0527 26.7116 20.1464C26.7898 20.2402 26.8337 20.3674 26.8337 20.5C26.8337 20.6326 26.7898 20.7598 26.7116 20.8536C26.6335 20.9473 26.5275 21 26.417 21ZM26.417 26C26.3065 26 26.2005 25.9473 26.1224 25.8536C26.0442 25.7598 26.0003 25.6326 26.0003 25.5C26.0003 25.3674 26.0442 25.2402 26.1224 25.1464C26.2005 25.0527 26.3065 25 26.417 25C26.5275 25 26.6335 25.0527 26.7116 25.1464C26.7898 25.2402 26.8337 25.3674 26.8337 25.5C26.8337 25.6326 26.7898 25.7598 26.7116 25.8536C26.6335 25.9473 26.5275 26 26.417 26Z" fill="#2054FF" stroke="#2054FF" stroke-width="1.5" stroke-linecap="round" stroke-linejoin="round"/>
</svg>
