<svg width="16" height="16" viewBox="0 0 16 16" fill="#3363FF" xmlns="http://www.w3.org/2000/svg">
<path d="M3.33366 2H14.0003C14.1771 2 14.3467 2.07024 14.4717 2.19526C14.5968 2.32029 14.667 2.48986 14.667 2.66667V3.724C14.667 3.9008 14.5967 4.07034 14.4717 4.19533L10.195 8.47133C10.0702 8.59644 10.0002 8.76597 10.0003 8.94267V13.146C10.0003 13.2473 9.97722 13.3473 9.93277 13.4384C9.88832 13.5295 9.82369 13.6092 9.7438 13.6716C9.66391 13.7339 9.57086 13.7772 9.47172 13.7982C9.37258 13.8192 9.26996 13.8173 9.17166 13.7927L7.83833 13.4593C7.69416 13.4232 7.5662 13.34 7.47476 13.2228C7.38333 13.1056 7.33366 12.9613 7.33366 12.8127V8.94267C7.33362 8.76587 7.26336 8.59633 7.13833 8.47133L2.86166 4.19533C2.73687 4.07023 2.66685 3.9007 2.66699 3.724V2.66667C2.66699 2.48986 2.73723 2.32029 2.86225 2.19526C2.98728 2.07024 3.15685 2 3.33366 2Z" stroke="#2054FF" stroke-width="1.25" stroke-linecap="round" stroke-linejoin="round"/>
</svg>